<svg width="20.000000" height="20.000000" viewBox="0 0 20 20" fill="none" xmlns="http://www.w3.org/2000/svg" xmlns:xlink="http://www.w3.org/1999/xlink">
	<desc>
			Created with Pixso.
	</desc>
	<defs>
		<clipPath id="clip2_2094">
			<rect id="favourite_20" rx="0.000000" width="19.000000" height="19.000000" transform="translate(0.500000 0.500000)" fill="white" fill-opacity="0"/>
		</clipPath>
	</defs>
	<g clip-path="url(#clip2_2094)">
		<path id="Vector (Stroke)" d="M4.33 5.15C3.76 5.66 3.37 6.48 3.37 7.72C3.37 8.49 3.74 9.37 4.39 10.31C5.03 11.24 5.91 12.16 6.8 12.97C7.69 13.78 8.59 14.48 9.26 14.98C9.55 15.19 9.8 15.36 9.99 15.49C10.18 15.36 10.43 15.18 10.72 14.96C11.4 14.45 12.29 13.73 13.18 12.91C14.08 12.08 14.96 11.16 15.6 10.24C16.26 9.3 16.62 8.44 16.62 7.72C16.62 5.85 15.11 4.35 13.26 4.35C12.15 4.35 11.17 4.89 10.55 5.74C10.42 5.92 10.22 6.02 9.99 6.02C9.77 6.02 9.57 5.92 9.44 5.74C8.82 4.89 7.84 4.35 6.73 4.35C5.73 4.35 4.9 4.63 4.33 5.15ZM9.99 16.32C9.62 16.88 9.62 16.88 9.62 16.88L9.62 16.88L9.61 16.88L9.59 16.87C9.58 16.86 9.56 16.84 9.53 16.83C9.47 16.79 9.39 16.73 9.29 16.66C9.08 16.52 8.79 16.32 8.44 16.06C7.74 15.55 6.81 14.82 5.87 13.97C4.94 13.12 3.98 12.12 3.26 11.08C2.54 10.04 2 8.89 2 7.72C2 6.18 2.5 4.97 3.4 4.15C4.29 3.35 5.48 3 6.73 3C8 3 9.15 3.5 9.99 4.31C10.84 3.5 11.99 3 13.26 3C15.88 3 18 5.12 18 7.72C18 8.85 17.44 9.99 16.73 11.01C16.01 12.04 15.05 13.04 14.12 13.9C13.18 14.76 12.25 15.51 11.55 16.03C11.2 16.3 10.91 16.51 10.71 16.65C10.61 16.72 10.52 16.78 10.47 16.82C10.44 16.84 10.42 16.85 10.4 16.86L10.39 16.87L10.38 16.88L10.38 16.88C10.38 16.88 10.38 16.88 9.99 16.32ZM9.99 16.32L10.38 16.88C10.15 17.03 9.85 17.03 9.62 16.88L9.99 16.32Z" fill="#2D3B87" fill-opacity="1.000000" fill-rule="evenodd"/>
	</g>
</svg>
