<svg width="16.500000" height="18.166748" viewBox="0 0 16.5 18.1667" fill="none" xmlns="http://www.w3.org/2000/svg" xmlns:xlink="http://www.w3.org/1999/xlink">
	<desc>
			Created with Pixso.
	</desc>
	<defs/>
	<path id="Vector" d="M0.75 4.08L0.75 15.75C0.75 16.19 0.92 16.61 1.23 16.92C1.55 17.24 1.97 17.41 2.41 17.41L14.08 17.41C14.52 17.41 14.94 17.24 15.26 16.92C15.57 16.61 15.75 16.19 15.75 15.75L15.75 4.08L13.25 0.75L3.25 0.75L0.75 4.08Z" stroke="#2D3B87" stroke-opacity="1.000000" stroke-width="1.500000" stroke-linejoin="round"/>
	<path id="Vector" d="M0.75 4.08L15.75 4.08" stroke="#2D3B87" stroke-opacity="1.000000" stroke-width="1.500000" stroke-linejoin="round" stroke-linecap="round"/>
	<path id="Vector" d="M11.58 7.41C11.58 8.3 11.23 9.14 10.6 9.77C9.98 10.39 9.13 10.74 8.25 10.74C7.36 10.74 6.51 10.39 5.89 9.77C5.26 9.14 4.91 8.3 4.91 7.41" stroke="#2D3B87" stroke-opacity="1.000000" stroke-width="1.500000" stroke-linejoin="round" stroke-linecap="round"/>
</svg>
