<svg width="20.000000" height="20.000000" viewBox="0 0 20 20" fill="none" xmlns="http://www.w3.org/2000/svg" xmlns:xlink="http://www.w3.org/1999/xlink">
	<desc>
			Created with Pixso.
	</desc>
	<defs>
		<clipPath id="clip11_1893">
			<rect id="search" rx="0.000000" width="19.000000" height="19.000000" transform="translate(0.500000 0.500000)" fill="white" fill-opacity="0"/>
		</clipPath>
	</defs>
	<g clip-path="url(#clip11_1893)">
		<path id="Vector" d="M7.91 2.5C9.35 2.5 10.73 3.07 11.74 4.08C12.76 5.1 13.33 6.47 13.33 7.91C13.33 9.25 12.84 10.49 12.03 11.44L12.25 11.66L12.91 11.66L17.08 15.83L15.83 17.08L11.66 12.91L11.66 12.25L11.44 12.03C10.49 12.84 9.25 13.33 7.91 13.33C6.48 13.33 5.1 12.76 4.08 11.74C3.07 10.73 2.5 9.35 2.5 7.91C2.5 6.47 3.07 5.1 4.08 4.08C5.1 3.07 6.48 2.5 7.91 2.5ZM7.91 4.16C5.83 4.16 4.16 5.83 4.16 7.91C4.16 10 5.83 11.66 7.91 11.66C10 11.66 11.66 10 11.66 7.91C11.66 5.83 10 4.16 7.91 4.16Z" fill="#FFFFFF" fill-opacity="1.000000" fill-rule="nonzero"/>
	</g>
</svg>
