<svg width="20.000000" height="20.000000" viewBox="0 0 20 20" fill="none" xmlns="http://www.w3.org/2000/svg" xmlns:xlink="http://www.w3.org/1999/xlink">
	<desc>
			Created with Pixso.
	</desc>
	<defs>
		<clipPath id="clip2_2102">
			<rect id="stock_20" rx="0.000000" width="19.000000" height="19.000000" transform="translate(0.500000 0.500000)" fill="white" fill-opacity="0"/>
		</clipPath>
	</defs>
	<g clip-path="url(#clip2_2102)">
		<path id="Vector" d="M13.99 7.57L6 3" stroke="#2D3B87" stroke-opacity="1.000000" stroke-width="1.100000" stroke-linejoin="round" stroke-linecap="round"/>
		<path id="Vector" d="M18 6.33C17.99 6.01 17.91 5.71 17.76 5.44C17.6 5.17 17.38 4.94 17.11 4.79L10.88 1.23C10.61 1.08 10.31 1 10 1C9.68 1 9.38 1.08 9.11 1.23L2.88 4.79C2.61 4.94 2.39 5.17 2.23 5.44C2.08 5.71 2 6.01 2 6.33L2 13.44C2 13.75 2.08 14.06 2.23 14.33C2.39 14.6 2.61 14.82 2.88 14.98L9.11 18.53C9.38 18.69 9.68 18.77 10 18.77C10.31 18.77 10.61 18.69 10.88 18.53L17.11 14.98C17.38 14.82 17.6 14.6 17.76 14.33C17.91 14.06 17.99 13.75 18 13.44L18 6.33Z" stroke="#2D3B87" stroke-opacity="1.000000" stroke-width="1.200000" stroke-linejoin="round"/>
		<path id="Vector" d="M2.5 5.5L10 9.89L17.5 5.5" stroke="#2D3B87" stroke-opacity="1.000000" stroke-width="1.200000" stroke-linejoin="round" stroke-linecap="round"/>
		<path id="Vector" d="M18.11 9.88L9.99 9.88" stroke="#2D3B87" stroke-opacity="1.000000" stroke-width="1.200000" stroke-linejoin="round" stroke-linecap="round"/>
	</g>
</svg>
